<?xml version="1.0" encoding="UTF-8"?>
<svg version="1.1" xmlns="http://www.w3.org/2000/svg" width="897" height="931">
<path d="M0 0 C6.57286029 5.68528427 10.54468596 12.49044591 14.8125 19.9375 C19.85298153 28.64089069 24.95942992 34.84568692 33 41 C33.63566895 41.49483887 34.27133789 41.98967773 34.92626953 42.49951172 C38.47110409 45.25434975 42.04103571 47.97339096 45.62890625 50.671875 C50.57892029 54.41212978 55.38009747 58.32327439 60.17724609 62.25634766 C63.94406529 65.34067045 67.74056441 68.37699839 71.58691406 71.36157227 C81.33059342 78.92742488 90.09849331 87.00304126 98.47265625 96.06103516 C104.64997512 102.7068414 111.02588586 109.14415225 117.4375 115.5625 C117.95169495 116.07910187 118.46588989 116.59570374 118.9956665 117.12796021 C125.90922069 124.08171179 125.90922069 124.08171179 133.21875 130.61328125 C136.13867445 133.09575824 138.50718531 135.74116099 140.91015625 138.7265625 C147.83735763 147.45176546 147.83735763 147.45176546 157.36572266 152.60791016 C163.07148992 152.77113338 168.55886206 151.13977752 174.06738281 149.8125 C181.54020114 148.15696532 189.2328304 147.56761088 196.83233643 146.75161743 C199.76339132 146.43605828 202.69303313 146.10946303 205.62255859 145.7800293 C322.02461682 132.74658712 322.02461682 132.74658712 365 148 C368.01157147 150.45707605 368.88225724 151.57612605 369.9375 155.375 C370.01169724 159.67843995 369.58575097 161.55233204 367 165 C361.72340436 167.2619571 356.4835665 168.71967195 350.8828125 169.91015625 C349.30789311 170.25770779 347.73311037 170.605879 346.15844727 170.95458984 C344.9288176 171.22441681 344.9288176 171.22441681 343.67434692 171.49969482 C313.07672658 178.2545617 283.509448 187.52657954 254 198 C254.36641602 198.42410156 254.73283203 198.84820312 255.11035156 199.28515625 C276.7139039 224.37671034 307 263.08808511 307 298 C307.54054866 297.97058665 308.08109732 297.94117331 308.63802624 297.91086864 C329.25184746 296.83729911 349.85158207 296.83558857 370.48690629 296.83274293 C373.4237494 296.8320241 376.36058805 296.82987468 379.29743004 296.82724571 C389.57532414 296.81805923 399.85320544 296.81390356 410.13110352 296.81469727 C419.66705083 296.81530078 429.2029421 296.80467842 438.73887521 296.7889536 C446.97984098 296.77585456 455.22078842 296.77051415 463.46176451 296.77115268 C468.36123155 296.77140635 473.26064824 296.76862543 478.16010475 296.75797462 C482.75602888 296.74824997 487.3518548 296.74824418 491.94778252 296.75549126 C493.62466196 296.75653068 495.3015477 296.75421274 496.97841644 296.7481308 C522.98931142 296.65994924 522.98931142 296.65994924 532 303 C535.41463946 306.58974918 536.82596878 309.22488155 537.3125 314.1875 C536.66596015 322.07528617 532.51508475 327.38562812 526.8347168 332.70874023 C518.15412793 339.72513215 506.59064434 343.59093275 496.125 347.0625 C495.45259277 347.28622284 494.78018555 347.50994568 494.08740234 347.740448 C444.63611916 364.0367011 392.80243956 373.27629105 341.6875 382.625 C340.47085663 382.84772583 339.25421326 383.07045166 338.0007019 383.29992676 C334.56770869 383.92603509 331.13373364 384.54636172 327.69921875 385.1640625 C326.67250061 385.35100677 325.64578247 385.53795105 324.58795166 385.7305603 C323.64329041 385.89891388 322.69862915 386.06726746 321.7253418 386.24072266 C320.49475288 386.46195297 320.49475288 386.46195297 319.23930359 386.68765259 C317 387 317 387 313 387 C312.9175 388.299375 312.835 389.59875 312.75 390.9375 C308.69587299 430.31251443 285.22627658 468.94515316 255.12426758 494.04296875 C231.01221829 513.40905325 197.39255731 527.86695825 166 526 C165.87882812 526.61746094 165.75765625 527.23492188 165.6328125 527.87109375 C165.46523438 528.71800781 165.29765625 529.56492187 165.125 530.4375 C164.88136719 531.67306641 164.88136719 531.67306641 164.6328125 532.93359375 C164 536 164 536 163.31420898 537.99121094 C161.47243441 543.92530758 162.42707646 547.16811481 165.27880859 552.59545898 C165.78492676 553.51270752 166.29104492 554.42995605 166.8125 555.375 C179.624227 580.37234764 186.77311299 608.02663851 189 636 C189.08378906 637.00675781 189.16757812 638.01351562 189.25390625 639.05078125 C189.50576685 644.53484261 188.82077173 647.74256864 185 652 C176.70631092 654.76456303 167.31208439 652.30549786 158.9375 650.875 C157.94882935 650.70694351 157.94882935 650.70694351 156.94018555 650.53549194 C124.23227217 644.93504433 93.22621085 634.5739983 63 621 C61.71609375 620.43031494 61.71609375 620.43031494 60.40625 619.84912109 C46.78256394 613.77140698 33.87513639 606.51568304 21 599 C20.10539063 598.47970215 19.21078125 597.9594043 18.2890625 597.42333984 C6.84742464 590.74551448 -4.20776703 583.68018695 -15 576 C-16.07846191 575.24033936 -16.07846191 575.24033936 -17.17871094 574.46533203 C-55.91880548 547.16238905 -55.91880548 547.16238905 -60 539 C-60.12243863 534.46977058 -59.81830145 531.01667755 -56.9375 527.4375 C-53.10908922 525.56402238 -50.1076011 524.93562161 -46 526 C-42.65447098 527.9136426 -39.89504358 530.47152309 -37 533 C-34.53628809 535.06065066 -32.0512272 537.09466696 -29.5625 539.125 C-28.88195557 539.68123047 -28.20141113 540.23746094 -27.50024414 540.81054688 C-4.72917976 559.27314629 20.29608844 574.97757231 46 589 C47.14879639 589.63373535 47.14879639 589.63373535 48.32080078 590.28027344 C84.44372285 610.12867011 123.22366486 623.49621584 163.78295898 630.53857422 C166 631 166 631 168 632 C165.77417335 619.43528323 163.4975167 606.9074826 160 594.625 C159.77554199 593.82618408 159.55108398 593.02736816 159.31982422 592.2043457 C157.36910147 585.59889414 154.73026845 579.31711817 152 573 C151.75354736 573.76666992 151.50709473 574.53333984 151.25317383 575.32324219 C150.12337827 578.80464722 148.96828766 582.27714198 147.8125 585.75 C147.42513672 586.9565625 147.03777344 588.163125 146.63867188 589.40625 C146.24873047 590.56640625 145.85878906 591.7265625 145.45703125 592.921875 C145.10616455 593.99018555 144.75529785 595.05849609 144.39379883 596.15917969 C142.75267232 599.50409965 141.11826329 600.99733124 138 603 C134.11515987 603.48560502 131.76833188 603.34148084 128.1875 601.75 C125.84533808 599.87627047 125.09162558 598.7507362 124 596 C123.7054465 589.38640694 126.07157717 582.9978931 128.203125 576.83984375 C128.52279236 575.89170303 128.84245972 574.94356232 129.17181396 573.96669006 C130.18934289 570.95398729 131.21914072 567.94566445 132.25 564.9375 C133.59166197 560.98933663 134.92858136 557.03957306 136.265625 553.08984375 C136.58817261 552.14015717 136.91072021 551.19047058 137.24304199 550.21200562 C139.96231122 542.18160389 142.52741022 534.10941827 145 526 C143.99702881 526.0208667 142.99405762 526.0417334 141.96069336 526.06323242 C126.6740615 526.33123311 126.6740615 526.33123311 121.5625 521.875 C119.52188619 518.1202706 119.02842822 515.18198288 120 511 C122.31516325 507.79962727 123.93034206 506.34826073 127.6875 505.125 C130.40835051 505.0223264 132.72375415 505.15772296 135.40625 505.4765625 C166.33094873 508.68390116 197.82584399 504.60290109 225 489 C225.60005859 488.65598145 226.20011719 488.31196289 226.81835938 487.95751953 C241.0890383 479.61220702 252.92945096 469.08707295 263 456 C261.91203125 455.82984375 260.8240625 455.6596875 259.703125 455.484375 C241.58780683 452.54653217 226.25049803 446.98076145 212 435 C211.401875 434.53464844 210.80375 434.06929687 210.1875 433.58984375 C205.04291199 429.54590077 205.04291199 429.54590077 204 426 C203.5382787 421.76755476 203.52461062 419.72893039 205.875 416.125 C208.58426322 413.41573678 209.61743247 413.06955773 213.4375 412.375 C219.02600247 412.41542316 222.20275715 416.09362059 226.203125 419.61328125 C237.93113836 429.62140439 252.55513913 435.2040971 268 434 C271.69515448 433.45535207 275.34719659 432.77778324 279 432 C279.27199219 431.14535156 279.54398438 430.29070312 279.82421875 429.41015625 C281.00000037 425.99999892 282.38460667 422.74915762 283.8125 419.4375 C289.04209093 406.74099084 292.12656623 393.25113533 292.765625 379.546875 C293.07662646 376.16732581 294.05462133 373.76842349 296 371 C299.39122976 368.73918016 301.66376125 368.34865336 305.66308594 367.64648438 C306.34003604 367.52548433 307.01698614 367.40448429 307.71444988 367.27981758 C309.19129885 367.0167728 310.66873499 366.75700872 312.14666557 366.50011063 C314.52064938 366.08744448 316.89302212 365.66644098 319.26515198 365.24325562 C322.65862222 364.63856407 326.05266439 364.03724403 329.44717407 363.43841553 C338.31181093 361.87246123 347.17002894 360.27084619 356.02734375 358.6640625 C356.90358587 358.50514652 357.779828 358.34623055 358.68262291 358.18249893 C380.22917311 354.26875746 401.66797009 349.96051502 423 345 C424.47741669 344.6567569 424.47741669 344.6567569 425.98468018 344.30657959 C467.63264073 335.44657423 467.63264073 335.44657423 507.25732422 320.35766602 C510 319 510 319 512 319 C512 318.34 512 317.68 512 317 C510.9138613 317.00699732 509.82772261 317.01399464 508.70867062 317.02120399 C482.2853725 317.19096635 455.86202414 317.34901737 429.43858242 317.49477577 C416.66043097 317.56553467 403.88232293 317.64010428 391.10424805 317.72363281 C379.96740312 317.7964232 368.83054296 317.86207597 357.69360596 317.91914403 C351.79623808 317.94961305 345.89893982 317.98366545 340.00164604 318.02626419 C334.45073916 318.06624809 328.8998617 318.09668676 323.34885979 318.11981392 C321.31189411 318.12998147 319.27494237 318.14363256 317.23802567 318.16103554 C314.45534406 318.18428768 311.67288358 318.19496426 308.89012146 318.20254517 C308.08563031 318.2122618 307.28113916 318.22197843 306.45226949 318.2319895 C300.71664558 318.22818794 295.2649936 317.93696005 290.734375 314.0625 C288.20472188 309.59572512 287.33439871 304.98721105 286.25 300 C279.18170985 269.95521842 265.24326695 243.28140815 245 220 C244.51321777 219.42491699 244.02643555 218.84983398 243.52490234 218.25732422 C241.95142218 216.40493775 240.3544021 214.57563113 238.75 212.75 C238.25443604 212.16387939 237.75887207 211.57775879 237.24829102 210.97387695 C235.665728 209.13915336 235.665728 209.13915336 233 207 C226.59486703 207.566076 220.57680506 211.01747979 214.75 213.5625 C214.09739197 213.84633545 213.44478394 214.1301709 212.7723999 214.42260742 C184.55031589 226.7253509 156.08273711 239.96649667 130.1953125 256.70703125 C128 258 128 258 126 258 C127.07710365 262.08500188 128.1628551 266.16765997 129.25 270.25 C129.70052734 271.95929688 129.70052734 271.95929688 130.16015625 273.703125 C131.93220184 280.3388702 133.8914322 286.82238676 136.25683594 293.27246094 C137.43277485 297.58835763 137.51799918 300.8406685 135.6875 304.9375 C132.95058485 308.66354589 128.98410133 310.59519236 125.0859375 312.94140625 C117.58664728 317.94409732 111.3440375 324.64566374 105 331 C104.31679688 331.64839844 103.63359375 332.29679687 102.9296875 332.96484375 C72.67736636 362.0093726 54.30867252 402.26953746 43.359375 442.09765625 C43.13701172 442.8983252 42.91464844 443.69899414 42.68554688 444.52392578 C42.20496397 446.25970633 41.73303996 447.99789661 41.26757812 449.73779297 C41.01943359 450.62740723 40.77128906 451.51702148 40.515625 452.43359375 C40.18739746 453.6390686 40.18739746 453.6390686 39.85253906 454.86889648 C38.89999216 457.24999097 38.01345517 458.42513727 36 460 C28.91328509 461.70470805 22.6088971 460.32521583 15.5625 458.875 C14.40814453 458.64272705 13.25378906 458.4104541 12.06445312 458.17114258 C-15.82620494 452.41509317 -38.42688105 441.81910377 -60 423 C-70.30079266 436.20027504 -79.22462651 450.17821781 -87.29638672 464.84399414 C-87.72322754 465.60446045 -88.15006836 466.36492676 -88.58984375 467.1484375 C-88.95972412 467.82052246 -89.32960449 468.49260742 -89.71069336 469.18505859 C-91.24424608 471.34382226 -92.75364744 472.60409978 -95 474 C-98.80417358 474.41500075 -101.2786247 474.30458068 -104.8125 472.8125 C-107.49027247 470.59377424 -108.24465247 469.39906391 -109 466 C-108.49285159 460.60458382 -107.51163503 455.45055482 -106.171875 450.19921875 C-105.98705566 449.46250946 -105.80223633 448.72580017 -105.61181641 447.96676636 C-104.99859567 445.5383933 -104.37574116 443.11267572 -103.75 440.6875 C-103.42304138 439.4163887 -103.42304138 439.4163887 -103.08947754 438.11959839 C-89.41827043 385.20179253 -71.38337643 333.97319534 -49.31225586 284.00341797 C-47.85069647 280.6785854 -46.41426896 277.34520107 -45 274 C-44.57348145 272.99404785 -44.14696289 271.9880957 -43.70751953 270.95166016 C-43.33095215 270.00468262 -42.95438477 269.05770508 -42.56640625 268.08203125 C-42.23713135 267.26581299 -41.90785645 266.44959473 -41.56860352 265.60864258 C-40.08895636 258.82030861 -43.08352779 252.85205554 -45.76171875 246.7734375 C-46.55241581 244.93656146 -47.34302062 243.09964571 -48.13354492 241.26269531 C-48.55026459 240.30286743 -48.96698425 239.34303955 -49.39633179 238.35412598 C-104.0398915 112.27446682 -104.0398915 112.27446682 -87.9375 67.6875 C-76.90654921 41.14225877 -58.04219107 9.35374162 -31.0546875 -3.21875 C-20.2086589 -7.34271525 -9.43399419 -7.12567647 0 0 Z M-38 27 C-38.61746094 27.55558594 -39.23492187 28.11117187 -39.87109375 28.68359375 C-55.42521482 43.08821857 -71.44540559 70.17085287 -72.33227539 91.46362305 C-73.23437665 135.77999182 -51.9547645 180.93906693 -35 221 C-34.37656789 222.4742586 -33.75319614 223.94854273 -33.12988281 225.42285156 C-32.81988846 226.15596054 -32.5098941 226.88906952 -32.19050598 227.64439392 C-30.9775028 230.51490021 -29.76705343 233.3864815 -28.55636597 236.25796509 C-27.70826424 238.26340054 -26.85376508 240.26601099 -25.99829102 242.26831055 C-25.48709717 243.47527588 -24.97590332 244.68224121 -24.44921875 245.92578125 C-23.99893311 246.98192627 -23.54864746 248.03807129 -23.0847168 249.1262207 C-16.7101648 266.014551 -26.84139513 283.03680019 -33.68969727 298.26489258 C-47.15194517 328.29220199 -58.86905603 359.2220644 -68.6875 390.625 C-69.03917236 391.74060303 -69.39084473 392.85620605 -69.75317383 394.00561523 C-70.22146606 395.53810913 -70.22146606 395.53810913 -70.69921875 397.1015625 C-71.11433716 398.45241943 -71.11433716 398.45241943 -71.5378418 399.83056641 C-72.24297832 402.03384183 -72.24297832 402.03384183 -71 404 C-70.55011719 403.42894531 -70.10023438 402.85789062 -69.63671875 402.26953125 C-61.8207813 392.41737763 -53.74066794 382.8042363 -45.265625 373.51171875 C-44.00034095 372.10899867 -42.74144698 370.7001909 -41.50773621 369.2696228 C-37.37739443 364.48063987 -33.07557179 359.92856822 -28.59765625 355.46484375 C-27.91626083 354.78249161 -27.23486542 354.10013947 -26.53282166 353.39710999 C-25.10294259 351.96655563 -23.67182089 350.53724233 -22.23950195 349.10913086 C-20.06802289 346.94300926 -17.90193675 344.77159826 -15.73632812 342.59960938 C-14.33625798 341.20020013 -12.93587762 339.80110116 -11.53515625 338.40234375 C-10.89844498 337.76360825 -10.2617337 337.12487274 -9.60572815 336.46678162 C-5.77480648 332.65541678 -1.82994005 329.0282352 2.26275635 325.49913025 C4.4840954 323.58225661 6.64706131 321.60461295 8.8125 319.625 C14.06137226 314.89384655 19.50562076 310.44123215 25 306 C26.23120087 304.98917233 27.46162618 303.97739951 28.69140625 302.96484375 C69.7332575 269.24735311 114.85506115 240.63969194 162.10839844 216.47949219 C164.02788197 215.49738562 165.94522778 214.51108908 167.86035156 213.52050781 C199.54978542 197.14133535 232.53410837 184.1771887 266.25 172.625 C267.12749908 172.32377228 268.00499817 172.02254456 268.90908813 171.71218872 C279.20120371 168.18787827 289.49823014 164.84738709 300 162 C300 161.67 300 161.34 300 161 C255.11452001 160.23393562 210.3726443 164.07646125 166.07080078 171.15722656 C164.8226358 171.35190773 164.8226358 171.35190773 163.54925537 171.55052185 C162.00145519 171.79245048 160.45480808 172.04193614 158.909729 172.30067444 C154.68942835 172.95501671 151.14337735 173.10446795 147 172 C144.45703125 169.7734375 144.45703125 169.7734375 142 167 C140.23066069 165.20685792 138.45978102 163.41523466 136.6875 161.625 C135.80449219 160.73039063 134.92148437 159.83578125 134.01171875 158.9140625 C131.8623468 156.7872237 129.62942777 154.80145534 127.33203125 152.8359375 C121.43425633 147.7260679 116.03825292 142.09590303 110.56347656 136.54296875 C105.45098051 131.36416729 100.30546762 126.30800909 94.77392578 121.57373047 C91.96419593 119.08109097 89.45087593 116.34902294 86.9375 113.5625 C86.42002197 112.99756836 85.90254395 112.43263672 85.36938477 111.85058594 C82.65237731 108.87325364 80.01876493 105.84627692 77.4375 102.75 C73.63704723 98.37675172 69.19169115 94.89637414 64.65429688 91.31738281 C62.85326703 89.88315066 61.07392533 88.42476673 59.296875 86.9609375 C52.66245246 81.5036963 45.96999787 76.17075223 39.0625 71.0625 C31.079465 65.15713276 23.4075145 58.89789784 15.81176758 52.50390625 C14.67413935 51.55958744 13.52203591 50.63217208 12.3503418 49.73046875 C8.31248469 46.58398643 5.76432408 43.14011967 3.0625 38.875 C2.63428955 38.21773926 2.2060791 37.56047852 1.76489258 36.88330078 C-0.81307929 32.91280901 -3.31138942 28.89425194 -5.8125 24.875 C-9.96480216 18.3079441 -9.96480216 18.3079441 -16.25 13.9375 C-25.42537362 14.14603122 -31.81488293 20.98009474 -38 27 Z M96.0625 277.1875 C94.42837158 278.27973877 94.42837158 278.27973877 92.76123047 279.39404297 C64.11438488 298.60446618 36.95367879 319.99702902 11.67504883 343.46850586 C10.41427671 344.62122754 9.14111111 345.7604163 7.86206055 346.89282227 C1.3305818 352.68625114 -4.89211945 358.73772262 -11.05102539 364.9206543 C-12.69239796 366.56741404 -14.33908819 368.20872095 -15.98632812 369.84960938 C-21.5353294 375.39511201 -26.91011532 381.02614295 -32 387 C-33.51712091 388.67004669 -35.03738048 390.3372546 -36.5625 392 C-40.31619344 396.15220199 -43.75359131 400.44229682 -47 405 C-41.72213798 417.42671215 -24.54622652 425.28558665 -12.6875 430.25 C-7.09176965 432.36015462 -1.43587561 434.16513988 4.3125 435.8125 C5.38721558 436.1233252 5.38721558 436.1233252 6.48364258 436.44042969 C11.94960516 437.92676045 17.35781382 438.57476843 23 439 C23.45886597 437.5605603 23.45886597 437.5605603 23.92700195 436.09204102 C36.9739818 395.33415714 53.16182094 358.28622221 82 326 C83.15242188 324.68322266 83.15242188 324.68322266 84.328125 323.33984375 C93.76427156 312.66644022 103.70375504 303.63830497 115 295 C112.69 286.75 110.38 278.5 108 270 C104.34671089 270 99.01298118 275.21531045 96.0625 277.1875 Z " fill="#FFFFFF" transform="translate(301,184)"/>
<path d="M0 0 C3.0625 1.9375 3.0625 1.9375 5 5 C5.69056879 8.15607058 5.90641796 10.88618773 5 14 C3.38747457 15.80940353 1.78265981 17.37268241 0 19 C-1.32537122 20.30346992 -2.64523038 21.61255718 -3.9609375 22.92578125 C-5.03988281 23.99795898 -5.03988281 23.99795898 -6.140625 25.09179688 C-6.87796875 25.82462891 -7.6153125 26.55746094 -8.375 27.3125 C-9.10460937 28.03373047 -9.83421875 28.75496094 -10.5859375 29.49804688 C-14.71981234 33.61346692 -18.67595446 37.81663936 -22.48095703 42.23803711 C-24.35565067 44.41252506 -26.30211377 46.51606806 -28.25 48.625 C-101.83609593 130.40111672 -138.33253419 243.11941454 -133.53540039 355.85742188 C-131.2499563 393.84635889 -123.9650386 430.87361691 -112 467 C-111.71157227 467.886875 -111.42314453 468.77375 -111.12597656 469.6875 C-106.61242525 483.50728838 -100.99324115 496.76285712 -95 510 C-94.63148926 510.8235498 -94.26297852 511.64709961 -93.88330078 512.49560547 C-81.26690228 540.58657971 -64.67400862 566.56791076 -46 591 C-45.21858643 592.02734253 -45.21858643 592.02734253 -44.42138672 593.07543945 C-38.984558 600.18641957 -33.35131368 606.99709639 -27.2578125 613.55859375 C-25.32656147 615.64688422 -23.4668194 617.77091534 -21.625 619.9375 C-18.01329531 624.12084141 -14.06875146 627.96134066 -10.08642578 631.78881836 C-6.43124909 635.35842827 -4.23128596 637.82591197 -3.6875 642.9375 C-4.04671227 646.45778025 -4.83620524 648.21797817 -7 651 C-10.7073094 653.28697658 -13.43163909 653.32537381 -17.65917969 652.73095703 C-22.01268167 651.37150929 -24.62954572 648.24250294 -27.625 644.9375 C-28.60799072 643.90206055 -28.60799072 643.90206055 -29.61083984 642.84570312 C-31.43071917 640.9170044 -33.22124515 638.96659749 -35 637 C-35.63768311 636.2992334 -36.27536621 635.5984668 -36.93237305 634.87646484 C-38.66751218 632.95287054 -40.32948635 630.97999829 -42 629 C-42.98124971 627.87991057 -43.96453822 626.7616058 -44.94921875 625.64453125 C-51.96768498 617.66447498 -58.67562285 609.54276694 -65 601 C-65.49467773 600.33661621 -65.98935547 599.67323242 -66.49902344 598.98974609 C-79.75729126 581.15839574 -91.20873919 562.40879811 -102 543 C-102.4031543 542.28166992 -102.80630859 541.56333984 -103.22167969 540.82324219 C-127.4636526 497.44395733 -141.97291318 448.56026563 -149.75 399.6875 C-149.94875732 398.45032227 -150.14751465 397.21314453 -150.35229492 395.93847656 C-153.39726686 375.94842506 -154.34964932 356.1379123 -154.31567383 335.92626953 C-154.31252634 332.0325889 -154.33603234 328.13968062 -154.36132812 324.24609375 C-154.59372561 232.02278453 -122.93536831 139.36491457 -61 56 C-60.29488281 55.0925 -59.58976562 54.185 -58.86328125 53.25 C-46.91205902 38.12309803 -34.03923188 23.96480937 -20.4375 10.3125 C-19.09667358 8.96466431 -19.09667358 8.96466431 -17.72875977 7.58959961 C-16.46890259 6.33288452 -16.46890259 6.33288452 -15.18359375 5.05078125 C-14.42618896 4.29450439 -13.66878418 3.53822754 -12.88842773 2.7590332 C-9.08205606 -0.78652697 -4.98622274 -0.73073954 0 0 Z " fill="#FFFFFF" transform="translate(154,152)"/>
<path d="M0 0 C2.78292977 0.68706375 3.96717267 1.56812947 6.0625 3.49829102 C6.752229 4.13178467 7.44195801 4.76527832 8.15258789 5.41796875 C12.4870403 9.57117998 16.75650275 13.78352879 20.9921875 18.03735352 C21.89904297 18.9403418 22.80589844 19.84333008 23.74023438 20.77368164 C28.84621454 25.88706714 33.75096587 31.09392122 38.4296875 36.59985352 C39.31843927 37.62118413 40.20772568 38.64204988 41.09765625 39.66235352 C48.27176685 48.02658789 54.93942227 56.69670221 61.4296875 65.59985352 C62.16638672 66.60508057 62.16638672 66.60508057 62.91796875 67.63061523 C86.9459333 100.54226984 106.66088664 137.24390826 120.4296875 175.59985352 C120.85991211 176.78691895 121.29013672 177.97398437 121.73339844 179.19702148 C133.44678959 211.72396569 141.45823364 245.24075287 145.4296875 279.59985352 C145.52077789 280.36974609 145.61186829 281.13963867 145.70571899 281.93286133 C147.45568414 297.17462679 147.77113485 312.34120194 147.74536133 327.67358398 C147.74221384 331.56726461 147.76571984 335.4601729 147.79101562 339.35375977 C148.02524872 432.01666222 116.07571499 524.69060992 60.4296875 598.59985352 C59.98286621 599.19830078 59.53604492 599.79674805 59.07568359 600.41333008 C50.80640542 611.47032178 41.9137245 621.97885849 32.62109375 632.18579102 C31.09510933 633.86682198 29.58307042 635.56057373 28.08203125 637.26391602 C17.43171274 649.31886752 17.43171274 649.31886752 11.8671875 650.09985352 C8.22209379 649.56965807 6.29329215 648.89073724 3.4296875 646.59985352 C1.09901173 643.38130127 0.96227613 640.49494825 1.4296875 636.59985352 C4.0918146 632.06737951 7.33598105 628.51099812 11.1171875 624.91235352 C15.81887287 620.32351431 20.0822796 615.56856365 24.171875 610.41625977 C26.14877949 607.95025953 28.18623959 605.55388953 30.25952148 603.16894531 C42.27874096 589.27800419 52.74051191 574.18376109 62.4296875 558.59985352 C62.80367676 558.00350098 63.17766602 557.40714844 63.56298828 556.79272461 C66.27778435 552.44734731 68.87802456 548.04277225 71.4296875 543.59985352 C71.90100098 542.78291016 72.37231445 541.9659668 72.85791016 541.12426758 C89.13140908 512.67293155 100.80190555 482.85740759 110.4296875 451.59985352 C110.75936523 450.53589355 111.08904297 449.47193359 111.42871094 448.37573242 C141.58009603 349.39168585 129.05435507 239.40720869 85.4296875 146.59985352 C84.98012695 145.63885742 84.53056641 144.67786133 84.06738281 143.68774414 C62.26712863 97.50158666 30.58146115 56.44597572 -5.5703125 20.59985352 C-6.52911184 19.64198641 -7.48749196 18.68369937 -8.4453125 17.72485352 C-9.1465625 17.02360352 -9.8478125 16.32235352 -10.5703125 15.59985352 C-11.5703125 14.59985352 -11.5703125 14.59985352 -11.9453125 10.91235352 C-11.88283773 7.76021722 -11.44101978 5.70342345 -9.6328125 3.09985352 C-6.15802776 0.26329455 -4.40086142 -0.41448424 0 0 Z " fill="#FFFFFF" transform="translate(749.5703125,151.400146484375)"/>
<path d="M0 0 C0.18473877 0.9895166 0.36947754 1.9790332 0.55981445 2.99853516 C5.29287311 28.29982752 10.29750793 53.53815319 15.4934082 78.74853516 C15.84312431 80.44999191 15.84312431 80.44999191 16.1999054 82.18582153 C16.64055622 84.32866953 17.08293186 86.47116377 17.52726746 88.61325073 C17.81927788 90.03349045 17.81927788 90.03349045 18.1171875 91.48242188 C18.28847168 92.31060425 18.45975586 93.13878662 18.63623047 93.99206543 C19 96 19 96 19 98 C16.9635505 98.84600276 14.92056513 99.6762825 12.875 100.5 C11.73804688 100.9640625 10.60109375 101.428125 9.4296875 101.90625 C5.9291194 103.02260429 3.63260796 103.5000351 0 103 C-2.60546875 101.3828125 -2.60546875 101.3828125 -5.1875 99.125 C-6.13625 98.30515625 -7.085 97.4853125 -8.0625 96.640625 C-9.031875 95.76921875 -10.00125 94.8978125 -11 94 C-11.94875 93.14921875 -12.8975 92.2984375 -13.875 91.421875 C-15.74078048 89.73230712 -17.60024602 88.03573777 -19.453125 86.33203125 C-21.58941749 84.37594748 -23.74780657 82.45812303 -25.9375 80.5625 C-30.8328415 76.30395089 -35.59597754 71.90172495 -40.36621094 67.50439453 C-42.04638952 65.95728448 -43.72998291 64.41395575 -45.4140625 62.87109375 C-59.65764867 49.80429328 -59.65764867 49.80429328 -65.19140625 43.30078125 C-65.72064697 42.67985596 -66.2498877 42.05893066 -66.79516602 41.41918945 C-67.19276123 40.95085693 -67.59035645 40.48252441 -68 40 C-67.75354736 41.11109131 -67.50709473 42.22218262 -67.25317383 43.36694336 C-59.01772944 80.53023849 -59.01772944 80.53023849 -55.9375 95.6875 C-55.63259644 97.15981079 -55.63259644 97.15981079 -55.3215332 98.66186523 C-53.55262199 107.51911871 -53.55262199 107.51911871 -54 112 C-58.89743674 116.28525715 -65.72375691 117.05493005 -72 117 C-72.18997559 115.98429932 -72.37995117 114.96859863 -72.57568359 113.92211914 C-74.80536204 102.02387783 -77.076091 90.13373224 -79.37268066 78.24822998 C-79.79689905 76.05164713 -80.22029808 73.85490591 -80.64294434 71.65802002 C-81.94327283 64.90319152 -83.26112538 58.15217005 -84.60186768 51.40524292 C-85.03334406 49.22151085 -85.45942809 47.03670629 -85.88006592 44.8508606 C-86.47318324 41.77508679 -87.08571677 38.70378912 -87.703125 35.6328125 C-87.8758493 34.7148439 -88.04857361 33.79687531 -88.22653198 32.85108948 C-89.23342923 27.96202842 -90.08677818 25.34198612 -94 22 C-94 21.01 -94 20.02 -94 19 C-90.94233206 18.12785392 -87.87830844 17.28054142 -84.8125 16.4375 C-83.94818359 16.19064453 -83.08386719 15.94378906 -82.19335938 15.68945312 C-73.91189967 13.43664225 -73.91189967 13.43664225 -70 15 C-67.67578125 16.53125 -67.67578125 16.53125 -65.3125 18.5 C-64.44496094 19.22058594 -63.57742188 19.94117187 -62.68359375 20.68359375 C-59.20011328 23.69044079 -55.76853449 26.74829802 -52.3671875 29.84765625 C-50.2659587 31.75817947 -48.14302801 33.63668448 -46 35.5 C-42.09792986 38.89857722 -38.25807019 42.36373993 -34.41796875 45.83203125 C-32.4009831 47.64047557 -30.36508404 49.4198734 -28.3125 51.1875 C-23.50936655 55.35942084 -18.90065447 59.74377748 -14.27856445 64.11401367 C-13.65554443 64.70029541 -13.03252441 65.28657715 -12.390625 65.890625 C-11.83407227 66.41688477 -11.27751953 66.94314453 -10.70410156 67.48535156 C-8.87877298 69.10774963 -6.97154283 70.56037534 -5 72 C-5.1451001 71.39043457 -5.2902002 70.78086914 -5.43969727 70.15283203 C-8.59248673 56.84651298 -11.59851793 43.51104354 -14.40206909 30.12689209 C-14.71532534 28.63530156 -15.03131008 27.14428125 -15.35012817 25.65386963 C-15.80145733 23.53908881 -16.24194104 21.42231625 -16.6796875 19.3046875 C-16.93476074 18.08765137 -17.18983398 16.87061523 -17.45263672 15.61669922 C-18.05330407 11.64779374 -18.09331807 8.00715505 -18 4 C-16.75108386 3.51801537 -15.50081192 3.03954323 -14.25 2.5625 C-13.20585937 2.16224609 -13.20585937 2.16224609 -12.140625 1.75390625 C-7.93202642 0.27168084 -4.48146847 -0.03929105 0 0 Z " fill="#FFFFFF" transform="translate(399,1)"/>
<path d="M0 0 C1.11697266 -0.020625 2.23394531 -0.04125 3.38476562 -0.0625 C19.53604715 -0.13740449 33.51442454 4.68397064 45.25390625 15.97265625 C56.32130153 27.51521698 59.8927063 40.26192447 59.6484375 55.95703125 C59.19955773 68.65035375 53.41954567 81.06328097 44.6953125 90.21875 C29.94961652 103.48477407 13.29518351 105.01099986 -5.63427734 104.42480469 C-19.8428588 103.57660189 -33.89199612 97.24604281 -43.5625 86.7578125 C-53.87802021 73.82311723 -56.71779546 60.44040814 -55.5625 44.25 C-53.85359612 31.51789632 -47.71741436 19.27476958 -37.5625 11.25 C-25.57586867 2.80621537 -14.43537068 0.06506083 0 0 Z M-22.5546875 22.85546875 C-30.34005338 32.14035062 -33.13031608 43.72578661 -32.80859375 55.6484375 C-31.62137109 68.19907703 -26.74256031 77.42183688 -17.109375 85.51953125 C-9.50419955 90.68685138 -0.61358814 92.37798846 8.4375 91.25 C18.39459202 89.06697825 25.56613223 83.49996026 31.4375 75.25 C36.84441903 63.92490599 38.58465539 50.05421074 35.3125 37.8125 C32.14731319 29.01209743 26.46459602 21.4372101 18.1328125 17.03125 C3.99680304 10.54258992 -11.05430507 11.74667641 -22.5546875 22.85546875 Z " fill="#FFFFFF" transform="translate(484.5625,-0.25)"/>
<path d="M0 0 C7.08703739 0.54515672 13.32796106 2.60918605 20 5 C21.78722657 10.12100582 19.9351325 13.80135168 18.03515625 18.58203125 C17.72299667 19.39621017 17.4108371 20.2103891 17.08921814 21.04924011 C16.0921205 23.64173753 15.07761798 26.22701253 14.0625 28.8125 C13.38230385 30.5718177 12.70325377 32.33157896 12.02539062 34.09179688 C10.36350197 38.39978592 8.68597409 42.70138302 7 47 C18.58155588 42.05103142 29.94058921 36.72741332 41.25 31.1875 C42.82928482 30.41702603 44.4087114 29.64684258 45.98828125 28.87695312 C53.19930916 25.40897553 53.19930916 25.40897553 60.31616211 21.75683594 C62.83758051 20.62353203 64.39578986 21.21359967 67 22 C68.75497529 22.75513929 70.48540615 23.56971539 72.1875 24.4375 C73.04730469 24.86933594 73.90710938 25.30117188 74.79296875 25.74609375 C77 27 77 27 79 29 C79.05664062 31.38867188 79.05664062 31.38867188 78 34 C75.67097693 35.53261756 73.61049504 36.65130404 71.09375 37.78125 C70.38246948 38.11797729 69.67118896 38.45470459 68.93835449 38.80163574 C66.6337989 39.88649336 64.31790529 40.9440067 62 42 C60.46692721 42.71242221 58.93437266 43.42596074 57.40234375 44.140625 C52.78036587 46.28738122 48.14146431 48.39579201 43.5 50.5 C41.8865954 51.23410397 40.27331358 51.96847782 38.66015625 52.703125 C34.77483769 54.47184673 30.88790441 56.23697008 27 58 C29.28307791 67.22514949 32.42044198 76.09093491 35.6875 85 C36.08260269 86.08584885 36.08260269 86.08584885 36.48568726 87.19363403 C39.99478043 96.83341889 43.6341514 106.38677505 47.85229492 115.74414062 C48.62073526 117.47369387 49.31915562 119.23412743 50 121 C49.67 121.66 49.34 122.32 49 123 C39.20948129 122.35799877 30.74533714 120.49510932 24 113 C22.41894531 110.09960937 22.41894531 110.09960937 21.078125 106.84375 C20.83080627 106.24373169 20.58348755 105.64371338 20.32867432 105.0255127 C17.08709 96.98797467 14.4357159 88.73529908 11.75 80.5 C11.21671859 78.88001968 10.68286699 77.26022694 10.1484375 75.640625 C9.17324858 72.68277727 8.201277 69.7239195 7.23339844 66.76367188 C6.16570383 63.50563941 5.08761601 60.25142616 4 57 C0.41678476 64.77778475 -2.6196925 72.73651363 -5.625 80.75 C-6.3615487 82.70688038 -7.09884448 84.6634772 -7.83651733 86.61993408 C-8.50117822 88.38383626 -9.16397566 90.14844029 -9.82666016 91.91308594 C-10.8559945 94.62113909 -11.91404221 97.31424402 -13 100 C-20.09883934 98.85210257 -26.41658619 96.88549626 -33 94 C-32.5700344 87.87755787 -31.44859073 82.67398054 -29.1484375 76.99609375 C-28.7117852 75.87853699 -28.7117852 75.87853699 -28.26631165 74.73840332 C-27.63866401 73.13526261 -27.00616294 71.53401499 -26.36923218 69.93453979 C-25.00989443 66.52052793 -23.67439909 63.09735267 -22.33763123 59.67445374 C-21.6364507 57.87935252 -20.9340931 56.08471066 -20.23060608 54.29051208 C-16.62616667 45.0862298 -13.13983403 35.83868257 -9.67633057 26.58059692 C-8.70245595 23.97747653 -7.72611919 21.37528949 -6.74951172 18.77319336 C-6.14922892 17.17047949 -5.54912202 15.56769972 -4.94921875 13.96484375 C-4.6790242 13.24462036 -4.40882965 12.52439697 -4.13044739 11.78234863 C-2.67359047 7.87909684 -1.2912631 3.96113604 0 0 Z " fill="#FFFFFF" transform="translate(583,19)"/>
<path d="M0 0 C3.39033379 2.50802749 4.23410549 6.03296033 5.42578125 9.90234375 C5.88989418 11.34618801 6.35426164 12.78995047 6.81884766 14.23364258 C7.06145325 14.99867096 7.30405884 15.76369934 7.55401611 16.5519104 C11.93778487 30.33977503 16.76641454 43.87526471 22.125 57.3125 C26.6546535 68.70643396 30.88660464 80.13313376 34.625 91.8125 C35.01445801 93.02655518 35.40391602 94.24061035 35.80517578 95.49145508 C38.45807653 103.93202503 40.78057858 112.43712054 43 121 C43.45101074 120.6690332 43.90202148 120.33806641 44.36669922 119.99707031 C61.4040123 107.52278666 78.78933207 95.70489137 97 85 C97.78455566 84.53585693 98.56911133 84.07171387 99.37744141 83.59350586 C100.16425293 83.13983643 100.95106445 82.68616699 101.76171875 82.21875 C102.47158936 81.80689453 103.18145996 81.39503906 103.9128418 80.97070312 C107.55549897 79.27656288 110.02547494 79.40382124 114 80 C116.8100346 81.79363911 118.50940468 83.01880935 120 86 C120.38350531 91.08144533 120.13160736 93.95319128 117 98 C114.45071252 99.59073187 111.98416612 100.96547565 109.3125 102.3125 C94.03513413 110.40819815 79.91485981 120.47237428 65.8125 130.4375 C65.13227783 130.91590332 64.45205566 131.39430664 63.7512207 131.88720703 C60.60282824 134.11182892 57.50016886 136.37139644 54.45703125 138.73828125 C48.63600678 143.18466391 43.95048556 146.37160231 36.37109375 145.6015625 C32.52719799 144.62634018 30.19036572 143.23394534 28 140 C23.99228624 131.88934126 21.60768389 123.415704 19.375 114.6875 C13.09566719 91.15475816 4.26962947 68.54358027 -4.48803711 45.84448242 C-18.14901359 10.37253398 -18.14901359 10.37253398 -14.875 2.1875 C-10.49515828 -2.92231534 -5.86571931 -2.32415293 0 0 Z " fill="#FFFFFF" transform="translate(272,290)"/>
<path d="M0 0 C6.1622545 4.88178603 9.89046508 11.15237328 11.9921875 18.6796875 C12.84394633 27.12794661 12.52055893 34.38632915 7.9921875 41.6796875 C7.56808594 42.37707031 7.14398438 43.07445312 6.70703125 43.79296875 C3.12946624 49.08457605 -1.22945993 52.91173539 -7.0078125 55.6796875 C-11.66850627 56.4696356 -13.35182417 56.06135344 -17.4453125 53.6796875 C-18.2909375 53.0196875 -19.1365625 52.3596875 -20.0078125 51.6796875 C-19.46813099 47.88531136 -18.03629431 46.56455662 -15.0703125 44.2421875 C-10.82220351 40.73559394 -10.82220351 40.73559394 -9.0078125 35.6796875 C-8.94757832 29.31895826 -10.33059213 24.84767288 -14.0078125 19.6796875 C-17.70911404 16.02571718 -20.64388694 13.8336791 -25.8828125 13.2421875 C-32.19210256 13.29356608 -37.91806034 16.07720058 -43.0078125 19.6796875 C-43.9137505 21.52777914 -43.9137505 21.52777914 -44.0078125 23.6796875 C-43.15162172 25.7413716 -43.15162172 25.7413716 -41.68139648 27.74780273 C-41.14590683 28.54061142 -40.61041718 29.3334201 -40.05870056 30.1502533 C-39.46311844 31.00430252 -38.86753632 31.85835175 -38.25390625 32.73828125 C-37.64200943 33.63724625 -37.03011261 34.53621124 -36.39967346 35.4624176 C-34.4266595 38.35560019 -32.43654287 41.23652001 -30.4453125 44.1171875 C-29.16092478 45.99202757 -27.87770915 47.86767117 -26.59570312 49.74414062 C-24.67388158 52.55637835 -22.75085668 55.36772105 -20.82235718 58.17538452 C-15.63011051 65.73856866 -10.52690864 73.35846124 -5.46421814 81.00889587 C-4.92180984 81.82717361 -4.37940155 82.64545135 -3.82055664 83.48852539 C-3.34799942 84.2037587 -2.8754422 84.918992 -2.38856506 85.65589905 C-1.41863324 87.07754177 -0.39097754 88.4606659 0.67572021 89.81121826 C1.9921875 91.6796875 1.9921875 91.6796875 1.8684082 93.76635742 C0.3234583 97.13993569 -2.86035839 98.92468186 -5.8203125 100.9921875 C-6.45001953 101.45947266 -7.07972656 101.92675781 -7.72851562 102.40820312 C-12.36549077 105.70225578 -12.36549077 105.70225578 -14.98120117 105.61035156 C-17.89577107 104.27191758 -19.03392044 102.36067561 -20.8515625 99.73828125 C-21.55023438 98.73651855 -22.24890625 97.73475586 -22.96875 96.70263672 C-25.86311403 92.4116866 -28.71175728 88.09783101 -31.5078125 83.7421875 C-37.90936907 73.85822463 -44.38407605 64.02440706 -50.90405273 54.2182312 C-51.96349666 52.62384389 -53.0216277 51.02858333 -54.07836914 49.43240356 C-61.55061028 38.07384438 -61.55061028 38.07384438 -69.88085938 27.33935547 C-71.0078125 25.6796875 -71.0078125 25.6796875 -71.0078125 22.6796875 C-69.66943359 21.28857422 -69.66943359 21.28857422 -67.78125 19.859375 C-67.08612305 19.32828125 -66.39099609 18.7971875 -65.67480469 18.25 C-64.91844727 17.69054687 -64.16208984 17.13109375 -63.3828125 16.5546875 C-62.61098633 15.9771875 -61.83916016 15.3996875 -61.04394531 14.8046875 C-43.66832844 1.92856137 -21.20311741 -13.942906 0 0 Z " fill="#FFFFFF" transform="translate(226.0078125,76.3203125)"/>
<path d="M0 0 C13.81243693 4.91991669 25.67302553 13.30910281 37.75 21.4375 C39.14040575 22.36946781 40.53102952 23.30111044 41.921875 24.23242188 C45.28376731 26.48455215 48.64270625 28.74102092 52 31 C50.263234 34.76562445 48.50867132 36.68746663 45 39 C40.41883999 40.21413257 38.08749075 40.05696729 34 37.6875 C28.61978404 34.55705798 23.58296616 30.96867249 18.59570312 27.25268555 C15.61758328 24.80027026 15.61758328 24.80027026 12 24 C10.49690121 25.87353817 10.49690121 25.87353817 8.99609375 28.3046875 C8.42052734 29.19800781 7.84496094 30.09132813 7.25195312 31.01171875 C6.65318359 31.95660156 6.05441406 32.90148437 5.4375 33.875 C4.83486328 34.81214844 4.23222656 35.74929687 3.61132812 36.71484375 C0.63869598 41.26107219 0.63869598 41.26107219 -2 46 C-0.89966431 46.40532959 -0.89966431 46.40532959 0.22290039 46.81884766 C2.90153481 47.95812092 5.04949042 49.24077552 7.43359375 50.8984375 C8.24763672 51.46046875 9.06167969 52.0225 9.90039062 52.6015625 C10.73763672 53.18679687 11.57488281 53.77203125 12.4375 54.375 C14.10268263 55.52890846 15.76804318 56.68256019 17.43359375 57.8359375 C18.60704346 58.65143066 18.60704346 58.65143066 19.80419922 59.48339844 C22.514885 61.35562215 25.25072905 63.18503414 28 65 C22.03907816 72.61673347 22.03907816 72.61673347 16.3671875 73.33203125 C11.73726454 72.87548432 8.8757517 70.85587034 5.0625 68.3125 C4.38509766 67.87744141 3.70769531 67.44238281 3.00976562 66.99414062 C-1.42217703 64.12591312 -5.72365153 61.09435906 -10 58 C-16.06659676 66.09981584 -21.60460051 74.4447948 -27 83 C-26.46890625 83.2371875 -25.9378125 83.474375 -25.390625 83.71875 C-22.30476912 85.3726074 -19.56137364 87.42775195 -16.75 89.5 C-12.7659936 92.41530983 -8.75520168 95.19581709 -4.5234375 97.7421875 C-3.7902832 98.18369141 -3.05712891 98.62519531 -2.30175781 99.08007812 C-0.86852146 99.93268979 0.5721619 100.77292491 2.02050781 101.59960938 C3.9921875 102.7734375 3.9921875 102.7734375 7 105 C7 106.32 7 107.64 7 109 C1.95619278 111.93457874 -2.04695888 114.09139087 -8 113 C-12.2267847 111.02620192 -16.11218856 108.56320312 -20 106 C-20.62648438 105.5875 -21.25296875 105.175 -21.8984375 104.75 C-43.78014706 90.21985294 -43.78014706 90.21985294 -51 83 C-52.04399137 76.95345564 -49.11412966 73.43089232 -45.796875 68.71875 C-45.25122391 67.91992905 -44.70557281 67.12110809 -44.14338684 66.29808044 C-42.35803039 63.68992875 -40.5540104 61.09527486 -38.75 58.5 C-37.51660414 56.70361423 -36.28476193 54.90616077 -35.05444336 53.10766602 C-32.56799558 49.47460498 -30.0758803 45.84554248 -27.57958984 42.21923828 C-22.93970779 35.46770952 -18.37546084 28.66654138 -13.83532715 21.84765625 C-12.59150003 19.98102091 -11.34345016 18.11726834 -10.09472656 16.25390625 C-6.53917797 10.93394309 -3.06052355 5.62320194 0 0 Z " fill="#FFFFFF" transform="translate(693,68)"/>
<path d="M0 0 C2.64872976 1.9126495 3.67757914 2.88564834 4.53515625 6.1015625 C4.85829123 10.22153355 4.05088466 12.67389986 1.51171875 15.9140625 C-1.79565169 18.54798647 -6.19197414 17.69070166 -10.21484375 17.2890625 C-11.88417433 16.6290946 -13.55129585 15.96347381 -15.21484375 15.2890625 C-20.63697685 15.48623098 -24.10030701 16.73559895 -28.21484375 20.2890625 C-30.8786716 24.7574189 -31.75788056 28.31173687 -30.85546875 33.36328125 C-29.44397226 37.60637739 -26.72475862 40.32439466 -22.96484375 42.7265625 C-18.86747065 43.56466154 -15.25380049 43.38994629 -11.21484375 42.2890625 C-8.29867282 40.32625515 -6.07320139 38.52024214 -4.0546875 35.625 C-2.36096754 33.20211925 -0.99567116 31.49176358 1.921875 30.734375 C6.11961983 30.49846868 8.28008071 30.95921725 11.84765625 33.2890625 C13.83986873 36.3737786 14.58511109 38.48464423 14.328125 42.1796875 C13.25503764 46.3485161 10.6692143 49.19412708 7.78515625 52.2890625 C7.21667969 52.92199219 6.64820313 53.55492187 6.0625 54.20703125 C-0.12496278 60.3682203 -8.54867254 63.219886 -17.21484375 63.7890625 C-27.04756743 63.10450579 -35.14687561 59.63245298 -42.12109375 52.71484375 C-48.82141912 44.95196678 -51.56012366 36.67559984 -51.21484375 26.4765625 C-50.21228241 17.53325966 -46.46556663 10.01315888 -39.96484375 3.7890625 C-28.66259954 -5.19285343 -12.76381368 -7.4875202 0 0 Z " fill="#FFFFFF" transform="translate(531.21484375,450.7109375)"/>
<path d="M0 0 C1.61962891 2.22412109 1.61962891 2.22412109 3.1015625 5.3984375 C3.3868985 6.00271576 3.6722345 6.60699402 3.96621704 7.22958374 C9.06908324 18.22288027 13.67141463 29.45739643 18.375 40.625 C19.86945695 44.16657184 21.36529753 47.70754508 22.86358643 51.24749756 C23.83836162 53.5508247 24.81100835 55.85505387 25.78143311 58.16021729 C28.03662201 63.49195496 30.33932998 68.78673901 32.80175781 74.02636719 C33.23316071 74.94968842 33.6645636 75.87300964 34.10903931 76.8243103 C34.91437023 78.53321798 35.73307865 80.23591042 36.56747437 81.93081665 C36.91984161 82.67858368 37.27220886 83.42635071 37.63525391 84.19677734 C37.94878815 84.83948578 38.26232239 85.48219421 38.58535767 86.14437866 C39 88 39 88 38.29379272 90.11538696 C36.18363296 93.18916727 32.92891045 94.33262345 29.625 95.8125 C28.95210938 96.13669922 28.27921875 96.46089844 27.5859375 96.79492188 C22.69872816 99.04130648 22.69872816 99.04130648 19.92709351 98.87745667 C17.13712893 97.60711197 16.73709195 96.0527649 15.56494141 93.25366211 C15.12949509 92.23483444 14.69404877 91.21600677 14.2454071 90.16630554 C13.78543839 89.04794815 13.32546967 87.92959076 12.8515625 86.77734375 C12.36166336 85.62091873 11.87176422 84.46449371 11.36701965 83.27302551 C10.04504947 80.14576105 8.73633212 77.01357848 7.43348312 73.87834167 C6.09083976 70.65519686 4.73288374 67.4385301 3.37524414 64.22167969 C2.83396693 62.93876502 2.29272237 61.65583657 1.75151062 60.37289429 C1.48471685 59.74049206 1.21792309 59.10808983 0.94304466 58.4565239 C0.13712119 56.54392382 -0.66664433 54.63042952 -1.46989441 52.71670532 C-4.48303931 45.54433641 -7.55153715 38.4013212 -10.73046875 31.30078125 C-11.06931091 30.54180038 -11.40815308 29.78281952 -11.75726318 29.00083923 C-12.98395488 26.25767031 -14.21229803 23.51554868 -15.46234131 20.78292847 C-16.27740635 19.00024319 -17.07862112 17.21124403 -17.87890625 15.421875 C-18.3179126 14.45862305 -18.75691895 13.49537109 -19.20922852 12.50292969 C-20.07291183 9.76922135 -20.19053057 8.59219846 -19 6 C-16.73900844 4.51733407 -14.66680955 3.34453534 -12.25 2.1875 C-11.62867188 1.86330078 -11.00734375 1.53910156 -10.3671875 1.20507812 C-6.47345398 -0.71303744 -4.10240241 -1.52251189 0 0 Z " fill="#FFFFFF" transform="translate(269,37)"/>
<path d="M0 0 C4.2745415 1.5897583 6.84998556 4.63451447 9.97729492 7.87695312 C10.99168388 8.90338928 10.99168388 8.90338928 12.02656555 9.95056152 C14.18255166 12.13552414 16.32444808 14.33368718 18.46557617 16.53320312 C20.61995703 18.73006202 22.77713733 20.92410132 24.9367218 23.11584473 C26.27919561 24.48005213 27.61816016 25.84772331 28.95329285 27.21911621 C29.55764664 27.8364563 30.16200043 28.45379639 30.78466797 29.08984375 C31.31585739 29.6353186 31.84704681 30.18079346 32.39433289 30.74279785 C33.76857964 32.14634769 33.76857964 32.14634769 35.77807617 33.03320312 C35.4502646 36.09277781 34.72129216 37.09156447 32.52807617 39.34570312 C29.77807617 41.03320312 29.77807617 41.03320312 27.34448242 40.86621094 C24.31503608 39.88290891 23.0940453 38.73949539 20.96557617 36.39257812 C19.94077148 35.28076172 19.94077148 35.28076172 18.89526367 34.14648438 C18.1965918 33.36660156 17.49791992 32.58671875 16.77807617 31.78320312 C15.38280742 30.25664524 13.98698714 28.73059124 12.59057617 27.20507812 C11.93702148 26.48513672 11.2834668 25.76519531 10.61010742 25.0234375 C8.39804008 22.62034942 6.11451827 20.31488486 3.77807617 18.03320312 C4.37874933 20.80483715 4.98267618 23.57565074 5.59057617 26.34570312 C5.77072266 27.1671582 5.95086914 27.98861328 6.13647461 28.83496094 C7.14201542 33.36078443 8.23674857 37.82843183 9.52807617 42.28320312 C10.55140605 45.97510594 11.43502132 49.18538154 10.77807617 53.03320312 C9.02807617 55.47070312 9.02807617 55.47070312 6.77807617 57.03320312 C2.77473247 56.68914829 -0.29209855 54.1978806 -3.51879883 51.99804688 C-4.11243225 51.59993301 -4.70606567 51.20181915 -5.31768799 50.79164124 C-7.20612413 49.52338165 -9.08904106 48.24718901 -10.97192383 46.97070312 C-12.25411968 46.10754351 -13.53666797 45.24490718 -14.81958008 44.3828125 C-17.9578111 42.27231822 -21.0911177 40.15469458 -24.22192383 38.03320312 C-23.01626615 40.47205889 -21.80782319 42.90944997 -20.59692383 45.34570312 C-20.23663086 46.07249268 -19.87633789 46.79928223 -19.50512695 47.5480957 C-16.93092047 52.70732944 -14.1917942 57.73834226 -11.25317383 62.70117188 C-10.06103534 65.3970305 -9.80959387 67.11778777 -10.22192383 70.03320312 C-13.03442383 72.40820312 -13.03442383 72.40820312 -16.22192383 74.03320312 C-19.22192383 73.03320312 -19.22192383 73.03320312 -20.64477539 70.5715332 C-21.12914062 69.49282959 -21.61350586 68.41412598 -22.11254883 67.30273438 C-22.65443848 66.11292969 -23.19632813 64.923125 -23.75463867 63.69726562 C-24.32735036 62.41353781 -24.89977399 61.12968145 -25.47192383 59.84570312 C-26.63184654 57.27741267 -27.7979229 54.71193458 -28.96411133 52.14648438 C-29.24731232 51.52077545 -29.53051331 50.89506653 -29.82229614 50.25039673 C-32.41469751 44.54643247 -35.25318603 39.00415225 -38.24536133 33.50195312 C-39.33463339 30.74827335 -39.37294843 29.72087478 -38.22192383 27.03320312 C-36.18760613 24.32077953 -35.03001073 23.18001586 -31.66333008 22.56835938 C-26.55750274 23.25802277 -23.07153421 25.88769003 -18.84692383 28.72070312 C-17.21415959 29.78718326 -15.58134755 30.85359023 -13.94848633 31.91992188 C-13.16248047 32.43989746 -12.37647461 32.95987305 -11.56665039 33.49560547 C-8.15406698 35.73346994 -4.69091432 37.88402396 -1.22192383 40.03320312 C-1.43921143 39.08477539 -1.65649902 38.13634766 -1.88037109 37.15917969 C-2.68522307 33.63516443 -3.47817205 30.10855915 -4.26757812 26.58105469 C-4.61069569 25.0555835 -4.95702405 23.53083077 -5.30664062 22.00683594 C-5.80903309 19.81431804 -6.29976776 17.61946361 -6.78833008 15.42382812 C-6.94660782 14.74451233 -7.10488556 14.06519653 -7.26795959 13.36529541 C-8.61069533 7.2332744 -8.61069533 7.2332744 -7.22192383 4.03320312 C-3.34638102 0.05000635 -3.34638102 0.05000635 0 0 Z " fill="#FFFFFF" transform="translate(703.221923828125,790.966796875)"/>
<path d="M0 0 C4.11574371 0.4748935 7.36383344 1.0210244 11 3 C11.11277557 10.0672688 10.88258057 16.98343679 10.22265625 24.01953125 C9.8744516 28.68058654 9.917251 33.32927866 10 38 C10.88300781 37.23816406 11.76601563 36.47632813 12.67578125 35.69140625 C15.16895044 33.54238725 17.6719083 31.40538033 20.1796875 29.2734375 C22.53144631 27.27156592 24.84906121 25.24303297 27.1328125 23.1640625 C28.05835938 22.34679687 28.98390625 21.52953125 29.9375 20.6875 C30.75089844 19.94886719 31.56429687 19.21023438 32.40234375 18.44921875 C35.98248508 16.45187674 38.09834055 17.00989175 42 18 C42.99 18.66 43.98 19.32 45 20 C44.44747289 26.53012607 43.21790113 32.38094413 41.27734375 38.62890625 C41.01240616 39.50401352 40.74746857 40.37912079 40.47450256 41.28074646 C39.63620673 44.04363916 38.78706142 46.80305313 37.9375 49.5625 C37.36320835 51.4483474 36.78963374 53.33441332 36.21679688 55.22070312 C34.81947019 59.81636851 33.41241111 64.40894926 32 69 C27.61422824 68.37432896 24.69255869 67.49790735 21 65 C23.01543714 57.36339 25.26311304 49.8286057 27.6875 42.3125 C28.00783203 41.31283203 28.32816406 40.31316406 28.65820312 39.28320312 C29.4366921 36.85478228 30.21731242 34.42707018 31 32 C30.38125 32.58116577 30.38125 32.58116577 29.75 33.17407227 C15.39107335 46.64958839 15.39107335 46.64958839 9.41796875 51.765625 C8.23487906 52.79553228 7.10914612 53.89085388 6 55 C3.24279442 55.01691537 0.73283582 54.47716181 -2 54 C-2.495 53.505 -2.495 53.505 -3 53 C-2.95989326 50.91444973 -2.83835686 48.83047367 -2.6875 46.75 C-2.64117432 46.10409912 -2.59484863 45.45819824 -2.54711914 44.79272461 C-1.8536306 35.51555737 -0.91888124 26.25702632 0 17 C-0.3623877 17.53367187 -0.72477539 18.06734375 -1.09814453 18.6171875 C-2.77179376 21.07947004 -4.44837863 23.53974039 -6.125 26 C-6.69476563 26.83917969 -7.26453125 27.67835938 -7.8515625 28.54296875 C-11.43753794 33.79968274 -15.13128568 38.94756142 -19 44 C-22.73487777 43.5020163 -24.81237635 43.12508244 -28 41 C-27.45939301 37.28718987 -26.61250388 35.0516623 -24.26171875 32.13671875 C-23.41033325 31.06454102 -23.41033325 31.06454102 -22.54174805 29.97070312 C-21.92984619 29.21724609 -21.31794434 28.46378906 -20.6875 27.6875 C-19.41546187 26.08819711 -18.14465358 24.48791535 -16.875 22.88671875 C-16.23046875 22.0776709 -15.5859375 21.26862305 -14.921875 20.43505859 C-11.94943349 16.66890875 -9.06246476 12.84080433 -6.1875 9 C-5.67856201 8.32412842 -5.16962402 7.64825684 -4.64526367 6.9519043 C-2.10925128 3.61205879 -2.10925128 3.61205879 0 0 Z " fill="#FFFFFF" transform="translate(250,830)"/>
<path d="M0 0 C5.90853505 5.54347682 7.48566107 11.46469666 7.75 19.4375 C7.46339232 27.76703562 5.56030225 32.4583788 -0.5 38.125 C-9.3670212 45.26068677 -22.23999544 50.00078666 -33.75 49.375 C-35.84762744 43.90552507 -37.75098689 38.41895716 -39.484375 32.82421875 C-39.84779999 31.65328423 -39.84779999 31.65328423 -40.21856689 30.45869446 C-40.72413189 28.8247129 -41.22824629 27.19028187 -41.73095703 25.55541992 C-42.50405268 23.04936289 -43.28911133 20.54723778 -44.07421875 18.04492188 C-44.56584724 16.4507498 -45.05675864 14.85635637 -45.546875 13.26171875 C-45.78323669 12.51484299 -46.01959839 11.76796722 -46.26312256 10.99845886 C-47.86419361 5.71758084 -47.86419361 5.71758084 -46.75 2.375 C-44.41166597 1.20285042 -42.18653117 0.22926676 -39.75 -0.6875 C-39.06518555 -0.95062988 -38.38037109 -1.21375977 -37.67480469 -1.48486328 C-24.98719205 -6.25696534 -11.51685915 -8.78404512 0 0 Z M-34.75 5.375 C-33.23469152 12.63172856 -31.28344472 19.70357408 -29.1875 26.8125 C-28.87103516 27.89982422 -28.55457031 28.98714844 -28.22851562 30.10742188 C-26.79249931 35.35651609 -26.79249931 35.35651609 -24.75 40.375 C-17.44747936 39.50707746 -11.9286954 37.78965514 -6.75 32.375 C-3.97663258 27.60827475 -3.10099724 23.8451661 -3.75 18.375 C-5.46221073 12.42828963 -7.19986064 7.62386206 -12.75 4.375 C-20.21929242 0.44379347 -27.24549895 2.83826725 -34.75 5.375 Z " fill="#FFFFFF" transform="translate(588.75,868.625)"/>
<path d="M0 0 C2.38312703 1.89428046 3.6500559 3.30011179 5 6 C5.42008973 9.69678959 5.10222501 11.77332716 3.5625 15.1875 C0.53062862 18.5151637 -1.61773115 19.04426796 -5.82421875 20.2421875 C-10.9809552 22.0382501 -14.07955469 26.98761857 -16.80859375 31.49609375 C-19.29500757 36.72163886 -20.52023834 42.42493304 -22 48 C-23.17902849 52.31655431 -24.03344453 55.2750834 -27.75 58.0625 C-31.68719874 59.19823041 -34.0567357 59.0953512 -38 58 C-40.375 56.4375 -40.375 56.4375 -42 54 C-44.50548798 40.75469555 -38.91316807 27.16742534 -32 16 C-27.02231611 9.20232201 -21.733271 4.38146831 -14 1 C-12.4840625 0.319375 -12.4840625 0.319375 -10.9375 -0.375 C-6.83188576 -1.24853494 -4.12256806 -0.93090247 0 0 Z " fill="#FFFFFF" transform="translate(498,566)"/>
<path d="M0 0 C3.1548697 3.28855062 4.26871284 6.95292901 4.625 11.4375 C4.42187363 16.81111582 1.51579687 20.15982901 -2 24 C6.31736712 33.17431149 6.31736712 33.17431149 15 42 C14.67 42.99 14.34 43.98 14 45 C12.375 45.6875 12.375 45.6875 10 46 C8.39125 46.2475 8.39125 46.2475 6.75 46.5 C-1.52817712 45.39624305 -6.82849294 37.10348502 -11.921875 31.0390625 C-14.03692636 28.96376774 -15.10768228 28.35176837 -18 28 C-17.855625 28.68964844 -17.71125 29.37929688 -17.5625 30.08984375 C-16.35792213 36.1880192 -15.79631588 41.78763445 -16 48 C-19.85786966 49.81546807 -22.76705996 50.09380477 -27 50 C-27.88332775 43.52352757 -28.75493986 37.04555611 -29.6184082 30.56640625 C-29.91355908 28.36226688 -30.21139439 26.15848525 -30.51196289 23.95507812 C-30.94342268 20.78866248 -31.36522571 17.62108762 -31.78515625 14.453125 C-31.92156021 13.46757629 -32.05796417 12.48202759 -32.19850159 11.46661377 C-32.31870163 10.5459613 -32.43890167 9.62530884 -32.56274414 8.67675781 C-32.67155411 7.8684552 -32.78036407 7.06015259 -32.89247131 6.22735596 C-33.00343772 3.92879082 -32.67574516 2.18833575 -32 0 C-8.70831498 -5.63833297 -8.70831498 -5.63833297 0 0 Z M-21 5 C-20.34 10.61 -19.68 16.22 -19 22 C-12.52349013 21.28556794 -12.52349013 21.28556794 -7.8125 17.3125 C-6.77729306 13.09204094 -7.21346464 10.94526559 -9 7 C-13.02179155 3.71906479 -16.02175747 3.34058582 -21 5 Z " fill="#FFFFFF" transform="translate(515,880)"/>
<path d="M0 0 C3.76085859 0.52234147 6.41126058 1.12362287 9 4 C9.49030846 10.05478581 8.19398396 15.57519191 6.84765625 21.45703125 C6.62806747 22.44120529 6.4084787 23.42537933 6.18223572 24.43937683 C5.71912867 26.50846252 5.25247385 28.57675699 4.7824707 30.64428711 C4.06129975 33.81778167 3.3510237 36.99356481 2.64257812 40.16992188 C2.19073432 42.18243325 1.73828175 44.19480807 1.28515625 46.20703125 C1.07157974 47.15906937 0.85800323 48.11110748 0.63795471 49.09199524 C0.33775673 50.40927864 0.33775673 50.40927864 0.03149414 51.75317383 C-0.14393417 52.52703934 -0.31936249 53.30090485 -0.50010681 54.09822083 C-1 56 -1 56 -2 58 C-5.88259786 56.85286882 -9.06131437 55.84222987 -12 53 C-12.20703125 50.73046875 -12.20703125 50.73046875 -11.8125 48.1875 C-11.69519531 47.35605469 -11.57789063 46.52460937 -11.45703125 45.66796875 C-11.30621094 44.78753906 -11.15539062 43.90710938 -11 43 C-10.67 41.02 -10.34 39.04 -10 37 C-14.62 33.7 -19.24 30.4 -24 27 C-25.8975 28.010625 -27.795 29.02125 -29.75 30.0625 C-35.37129504 33.05645062 -35.37129504 33.05645062 -38.21875 32.80078125 C-40.90140142 31.59476471 -42.86942537 30.01220937 -45 28 C-45 27.01 -45 26.02 -45 25 C-44.33693848 24.65855957 -43.67387695 24.31711914 -42.99072266 23.96533203 C-30.99876143 17.78187992 -19.01932275 11.60340087 -7.30908203 4.89697266 C-2.20512309 2 -2.20512309 2 0 2 C0 1.34 0 0.68 0 0 Z M-11.125 17.5 C-12.76855469 18.47453125 -12.76855469 18.47453125 -14.4453125 19.46875 C-15.28835937 19.9740625 -16.13140625 20.479375 -17 21 C-12.78884683 25.33987125 -12.78884683 25.33987125 -8 29 C-7.34 29 -6.68 29 -6 29 C-5.49363393 27.25183142 -4.99515381 25.50137737 -4.5 23.75 C-4.2215625 22.77546875 -3.943125 21.8009375 -3.65625 20.796875 C-2.84771134 17.82976587 -2.84771134 17.82976587 -3 14 C-6.2158222 14 -8.39989449 15.87653289 -11.125 17.5 Z " fill="#FFFFFF" transform="translate(208,801)"/>
<path d="M0 0 C2.5078125 1.87109375 2.5078125 1.87109375 5.125 4.4375 C6.09405716 5.36568536 7.0654734 6.29141314 8.0390625 7.21484375 C8.53051758 7.68390137 9.02197266 8.15295898 9.52832031 8.63623047 C11.76124066 10.70542308 14.12457956 12.59762174 16.5 14.5 C21.35058298 18.41377511 25.95912277 22.54000726 30.5390625 26.765625 C32.54359676 28.58561483 34.57278417 30.31219863 36.6875 32 C37.450625 32.66 38.21375 33.32 39 34 C39 34.66 39 35.32 39 36 C37.948125 36.66 36.89625 37.32 35.8125 38 C35.22082031 38.37125 34.62914062 38.7425 34.01953125 39.125 C31.40955479 40.25582152 29.82322631 40.41315507 27 40 C24.54296875 38.25 24.54296875 38.25 22.1875 36 C21.39730469 35.2575 20.60710938 34.515 19.79296875 33.75 C19.20128906 33.1725 18.60960937 32.595 18 32 C11.83643195 33.6658292 6.51740344 36.87805286 1 40 C1.08701172 41.46373047 1.08701172 41.46373047 1.17578125 42.95703125 C1.22089844 44.22933594 1.26601563 45.50164063 1.3125 46.8125 C1.37050781 48.07707031 1.42851563 49.34164062 1.48828125 50.64453125 C1 54 1 54 -1.20703125 55.88671875 C-3.8291812 56.93191139 -6.23557185 57.48832684 -9 58 C-9.02505615 56.93265625 -9.0501123 55.8653125 -9.07592773 54.765625 C-9.17161596 50.72485609 -9.27141094 46.68419644 -9.37231445 42.64355469 C-9.41506448 40.9098571 -9.4567676 39.17613332 -9.49731445 37.44238281 C-9.5368355 35.75810303 -9.57781844 34.07385691 -9.62026978 32.38964844 C-9.66248382 30.71329302 -9.7015264 29.03685473 -9.73739624 27.36035156 C-9.83926759 23.32227193 -10.03422677 19.33717757 -10.46923828 15.3203125 C-10.54183365 14.5895752 -10.61442902 13.85883789 -10.68922424 13.10595703 C-10.89648487 11.13031761 -11.14044592 9.15862594 -11.38696289 7.1875 C-11 4 -11 4 -8.1652832 1.59545898 C-3.50178089 -0.75517639 -3.50178089 -0.75517639 0 0 Z M-1 14 C-0.67 19.61 -0.34 25.22 0 31 C3.63 29.35 7.26 27.7 11 26 C9.059617 22.119234 7.63608777 20.52245168 4.4375 17.75 C3.63183594 17.04359375 2.82617188 16.3371875 1.99609375 15.609375 C0.29759824 13.89538948 0.29759824 13.89538948 -1 14 Z " fill="#FFFFFF" transform="translate(628,840)"/>
<path d="M0 0 C1.25159912 0.00523682 2.50319824 0.01047363 3.79272461 0.01586914 C4.78942421 0.01799156 4.78942421 0.01799156 5.80625916 0.02015686 C7.93590735 0.02577021 10.06545175 0.03832485 12.19506836 0.05102539 C13.63582205 0.05603868 15.07657739 0.06060188 16.51733398 0.06469727 C20.05577938 0.07574394 23.59416375 0.09301747 27.13256836 0.11352539 C26.25756836 4.86352539 26.25756836 4.86352539 25.13256836 7.11352539 C19.52256836 7.11352539 13.91256836 7.11352539 8.13256836 7.11352539 C8.13256836 11.40352539 8.13256836 15.69352539 8.13256836 20.11352539 C9.98881836 20.09290039 11.84506836 20.07227539 13.75756836 20.05102539 C17.99927896 20.04601155 21.97301354 20.18917988 26.13256836 21.11352539 C24.25756836 26.98852539 24.25756836 26.98852539 23.13256836 28.11352539 C20.43601982 28.1867216 17.76565378 28.20595076 15.07006836 28.17602539 C14.31145508 28.17151367 13.5528418 28.16700195 12.77124023 28.16235352 C10.89164965 28.15053219 9.01209937 28.13259617 7.13256836 28.11352539 C7.46256836 32.73352539 7.79256836 37.35352539 8.13256836 42.11352539 C15.06256836 42.44352539 21.99256836 42.77352539 29.13256836 43.11352539 C27.13256836 49.11352539 27.13256836 49.11352539 25.13256836 50.11352539 C23.03931236 50.21090323 20.94293089 50.24429362 18.84741211 50.24633789 C17.59508789 50.24762695 16.34276367 50.24891602 15.05249023 50.25024414 C13.73829102 50.24637695 12.4240918 50.24250977 11.07006836 50.23852539 C9.75200195 50.24239258 8.43393555 50.24625977 7.07592773 50.25024414 C5.82489258 50.24895508 4.57385742 50.24766602 3.28491211 50.24633789 C2.12983154 50.24520996 0.97475098 50.24408203 -0.21533203 50.24291992 C-2.86743164 50.11352539 -2.86743164 50.11352539 -3.86743164 49.11352539 C-3.9657431 47.61482491 -3.9954162 46.11154001 -3.99682617 44.60961914 C-3.99997833 43.65192627 -4.00313049 42.6942334 -4.00637817 41.70751953 C-4.00435394 40.66587646 -4.00232971 39.6242334 -4.00024414 38.55102539 C-4.00120087 37.48940186 -4.00215759 36.42777832 -4.00314331 35.33398438 C-4.00382528 33.08439068 -4.00196983 30.83479502 -3.99780273 28.58520508 C-3.99245474 25.12845468 -3.99774718 21.67183422 -4.00415039 18.21508789 C-4.00348961 16.0354001 -4.00220846 13.85571239 -4.00024414 11.67602539 C-4.00226837 10.63438232 -4.0042926 9.59273926 -4.00637817 8.51953125 C-4.00322601 7.56183838 -4.00007385 6.60414551 -3.99682617 5.61743164 C-3.99603058 4.76995361 -3.99523499 3.92247559 -3.99441528 3.04931641 C-3.78701074 -0.11244404 -3.21222566 0.12717624 0 0 Z " fill="#FFFFFF" transform="translate(432.867431640625,880.886474609375)"/>
<path d="M0 0 C2.14297505 1.19578008 4.0991264 2.47767106 5.953125 4.08984375 C5.37967563 6.95709061 5.0916735 7.95129525 2.953125 10.08984375 C0.24963654 9.80018427 -1.56894226 8.8121484 -3.984375 7.52734375 C-7.05923696 6.0840412 -8.71560986 5.62716804 -12.046875 6.08984375 C-12.706875 6.74984375 -13.366875 7.40984375 -14.046875 8.08984375 C-13.91748304 13.43297048 -11.56992897 16.41939746 -8.109375 20.21484375 C-3.16572943 25.76683043 -0.54426241 29.29228008 -0.73046875 36.83984375 C-1.22920572 40.38641774 -2.71013251 42.43732524 -5.046875 45.08984375 C-10.9065437 49.38693413 -17.06414743 48.90196533 -24.046875 48.08984375 C-29.16198213 46.48807695 -32.91922521 44.58232142 -36.171875 40.27734375 C-36.460625 39.55546875 -36.749375 38.83359375 -37.046875 38.08984375 C-36.056875 36.43984375 -35.066875 34.78984375 -34.046875 33.08984375 C-31.505498 34.26278698 -29.53248731 35.48732515 -27.296875 37.21484375 C-23.06101916 39.65860674 -20.86867953 39.5720242 -16.046875 39.08984375 C-13.83094346 37.27663309 -13.83094346 37.27663309 -13.72265625 34.734375 C-14.12110323 31.48439183 -15.11790546 30.24580609 -17.234375 27.77734375 C-18.18570312 26.60751953 -18.18570312 26.60751953 -19.15625 25.4140625 C-19.78015625 24.64707031 -20.4040625 23.88007812 -21.046875 23.08984375 C-24.78511838 18.25048412 -26.86306162 14.44155296 -26.46484375 8.19921875 C-25.53296946 3.49630177 -23.19754251 0.89263503 -19.359375 -1.78515625 C-12.24239087 -4.2022452 -6.6724265 -3.27788785 0 0 Z " fill="#FFFFFF" transform="translate(341.046875,864.91015625)"/>
<path d="M0 0 C8.8972345 0.87980372 17.69569479 2.20460548 26.51855469 3.62915039 C28.00546966 3.86588205 29.49244854 4.10221271 30.97949219 4.33813477 C34.57659284 4.9096982 38.17280529 5.48663927 41.76855469 6.06665039 C41.01855469 10.81665039 41.01855469 10.81665039 38.76855469 13.06665039 C36.81542969 13.29711914 36.81542969 13.29711914 34.51855469 13.25415039 C33.39707031 13.24448242 33.39707031 13.24448242 32.25292969 13.23461914 C29.38116651 13.04045905 26.60374472 12.55451136 23.76855469 12.06665039 C23.59203369 13.13101318 23.4155127 14.19537598 23.23364258 15.29199219 C22.57659548 19.25241683 21.91846392 23.21266063 21.26000977 27.17285156 C20.97553544 28.88471669 20.69135263 30.59663029 20.4074707 32.30859375 C19.99865689 34.77364797 19.58878448 37.23852421 19.17871094 39.70336914 C19.05262955 40.46501877 18.92654816 41.2266684 18.79664612 42.01139832 C18.18026419 45.71007772 17.53323234 49.39556308 16.76855469 53.06665039 C15.12280903 53.0935319 13.47694055 53.11299162 11.83105469 53.12915039 C10.91453125 53.14075195 9.99800781 53.15235352 9.05371094 53.16430664 C6.76855469 53.06665039 6.76855469 53.06665039 5.76855469 52.06665039 C5.5751678 46.7517582 5.97243802 41.86770439 6.86230469 36.60961914 C6.97328491 35.93997635 7.08426514 35.27033356 7.1986084 34.58039856 C7.54920475 32.47058179 7.90836489 30.36234854 8.26855469 28.25415039 C8.62730514 26.12789181 8.98419495 24.00134759 9.33850098 21.87434387 C9.65845055 19.95759336 9.9838638 18.04175722 10.30957031 16.12597656 C10.84273842 13.08777838 10.84273842 13.08777838 10.76855469 10.06665039 C5.48855469 9.07665039 0.20855469 8.08665039 -5.23144531 7.06665039 C-3.84106074 0.11472753 -3.84106074 0.11472753 0 0 Z " fill="#FFFFFF" transform="translate(368.2314453125,872.933349609375)"/>
<path d="M0 0 C0.87744873 0.03915527 1.75489746 0.07831055 2.65893555 0.11865234 C3.58746338 0.18004395 4.51599121 0.24143555 5.47265625 0.3046875 C6.88768433 0.38710693 6.88768433 0.38710693 8.33129883 0.47119141 C22.23546153 1.41396787 22.23546153 1.41396787 28.53515625 4.1796875 C30.71600682 7.45096336 30.78403484 8.45345473 30.72265625 12.2421875 C30.71621094 13.12003906 30.70976563 13.99789062 30.703125 14.90234375 C30.53515625 17.1796875 30.53515625 17.1796875 29.53515625 19.1796875 C21.77511972 18.5534046 14.54960959 16.35333223 7.09765625 14.1796875 C5.7937546 13.80681994 4.48971904 13.43442029 3.18554688 13.0625 C-6.32713326 10.31739799 -6.32713326 10.31739799 -7.46484375 9.1796875 C-7.93133798 3.81500383 -7.93133798 3.81500383 -6.22827148 1.49560547 C-3.96693441 -0.19186606 -2.79577381 -0.13668609 0 0 Z " fill="#FFFFFF" transform="translate(723.46484375,64.8203125)"/>
</svg>
